<svg width="30" height="34" viewBox="0 0 30 34" fill="none" xmlns="http://www.w3.org/2000/svg">
<path d="M4.45996 7.52661C7.80938 24.1691 17.2088 49.0387 28.0107 15.3769" stroke="#F08A5D" stroke-width="3.5" stroke-linecap="round"/>
<path d="M0.800057 13.855L0.748782 13.789L9.81575 4.40566L11.4499 6.39502L0.800057 13.855Z" fill="#F08A5D" stroke="#F08A5D"/>
<path d="M14.0772 5.83252L12.4121 6.87315L9.49504 3.42567L10.7558 1.74468L14.0772 5.83252Z" fill="#F08A5D" stroke="#F08A5D"/>
<path d="M13.252 23.2272C12.9379 22.5992 7.91379 9.09674 13.252 12.8649" stroke="#F08A5D" stroke-width="3.5" stroke-linecap="round"/>
<path d="M13.252 12.8648C14.0893 13.7022 16.4549 16.8214 19.2181 22.5991C21.9814 28.3769 21.8349 15.7956 21.4162 8.78271" stroke="#F08A5D" stroke-width="3.5" stroke-linecap="round"/>
<path d="M22.8886 5.25074C22.8691 5.24276 22.8494 5.23467 22.8296 5.22647L22.8296 5.22647C22.5656 5.11688 22.2871 4.98823 22.0007 4.84434L22.0007 4.8443C21.8789 4.78314 21.7558 4.7189 21.6316 4.6516L21.6314 4.65151C21.5068 4.58408 21.3818 4.51429 21.2566 4.44218L22.8886 5.25074ZM22.8886 5.25074L22.9637 5.16464C23.0421 5.07473 23.1119 4.97739 23.1721 4.87399L23.1748 4.86934L23.1748 4.86935L23.1774 4.86508L23.1777 4.86459M22.8886 5.25074L23.1777 4.86459M23.1777 4.86459L23.1785 4.86321C23.1788 4.86276 23.1784 4.86335 23.1777 4.86459ZM19.806 3.48609C19.8743 3.53792 19.9442 3.58981 20.0154 3.64165L19.806 3.48609ZM19.806 3.48609C19.7839 3.46923 19.7619 3.45237 19.7401 3.43551L19.806 3.48609ZM20.2288 3.79221C20.1569 3.74303 20.0858 3.69286 20.0155 3.64177L21.2565 4.44215C20.9128 4.24412 20.5623 4.0233 20.2313 3.79396L20.2314 3.79396L20.2288 3.79221Z" fill="#F08A5D" stroke="#F08A5D"/>
</svg>
