<svg width="130" height="48" viewBox="0 0 130 48" fill="none" xmlns="http://www.w3.org/2000/svg">
<path d="M39.9797 40.212V42.9816C39.9797 43.371 40.0739 43.6599 40.2623 43.8483C40.4549 44.0367 40.7208 44.1309 41.0599 44.1309C41.3948 44.1309 41.6565 44.0367 41.8449 43.8483C42.0375 43.6599 42.1338 43.371 42.1338 42.9816V40.212H42.7053V42.9753C42.7053 43.3396 42.632 43.6473 42.4855 43.8985C42.339 44.1455 42.1401 44.3298 41.8889 44.4512C41.6419 44.5726 41.3634 44.6333 41.0536 44.6333C40.7438 44.6333 40.4633 44.5726 40.2121 44.4512C39.9651 44.3298 39.7682 44.1455 39.6217 43.8985C39.4794 43.6473 39.4082 43.3396 39.4082 42.9753V40.212H39.9797ZM48.9842 44.5893H48.4127L46.1142 41.1038V44.5893H45.5427V40.2058H46.1142L48.4127 43.685V40.2058H48.9842V44.5893ZM52.414 40.212V44.5893H51.8425V40.212H52.414ZM58.8895 40.212L57.2378 44.5893H56.5784L54.9267 40.212H55.5359L56.9112 43.9864L58.2866 40.212H58.8895ZM61.9717 40.6768V42.1401H63.5669V42.6111H61.9717V44.1183H63.7553V44.5893H61.4002V40.2058H63.7553V40.6768H61.9717ZM68.8089 44.5893L67.7664 42.7995H67.0756V44.5893H66.5041V40.212H67.9171C68.2481 40.212 68.5263 40.2686 68.7524 40.3816C68.9829 40.4947 69.1543 40.6474 69.2674 40.8401C69.3804 41.0327 69.4369 41.2525 69.4369 41.4995C69.4369 41.8009 69.349 42.0668 69.1732 42.2971C69.0017 42.5274 68.7417 42.6802 68.3944 42.7555L69.4935 44.5893H68.8089ZM67.0756 42.341H67.9171C68.2268 42.341 68.4591 42.2657 68.6142 42.1149C68.7694 41.96 68.8466 41.7549 68.8466 41.4995C68.8466 41.2399 68.7694 41.039 68.6142 40.8966C68.4635 40.7542 68.2311 40.6831 67.9171 40.6831H67.0756V42.341ZM73.5969 44.6333C73.3081 44.6333 73.0487 44.5831 72.8182 44.4826C72.5921 44.3779 72.4144 44.2356 72.2844 44.0555C72.1544 43.8713 72.0878 43.6599 72.0834 43.4212H72.6926C72.7133 43.6264 72.7975 43.8001 72.9438 43.9425C73.0945 44.0806 73.3125 44.1497 73.5969 44.1497C73.8689 44.1497 74.0824 44.0827 74.2375 43.9488C74.3964 43.8106 74.4762 43.6347 74.4762 43.4212C74.4762 43.2537 74.4303 43.1177 74.338 43.013C74.2457 42.9083 74.1308 42.8288 73.9926 42.7744C73.8544 42.7199 73.6679 42.6613 73.4337 42.5985C73.1448 42.5232 72.9124 42.4478 72.7366 42.3724C72.5651 42.2971 72.4163 42.1798 72.2907 42.0207C72.1695 41.8575 72.1085 41.6397 72.1085 41.3676C72.1085 41.129 72.1695 40.9175 72.2907 40.7333C72.4119 40.5491 72.5814 40.4067 72.7994 40.3062C73.0211 40.2058 73.2748 40.1555 73.5593 40.1555C73.9694 40.1555 74.3047 40.2581 74.5641 40.4632C74.8279 40.6684 74.9767 40.9405 75.01 41.2797H74.382C74.3612 41.1122 74.2733 40.9657 74.1182 40.8401C73.9631 40.7102 73.7583 40.6454 73.5027 40.6454C73.2641 40.6454 73.0694 40.7082 72.9187 40.8338C72.768 40.9552 72.6926 41.1269 72.6926 41.3488C72.6926 41.5078 72.7366 41.6376 72.8245 41.7381C72.9168 41.8386 73.0273 41.916 73.1573 41.9705C73.2911 42.0207 73.4776 42.0793 73.7163 42.1463C74.0052 42.2259 74.2375 42.3054 74.4134 42.385C74.5892 42.4603 74.7399 42.5797 74.8655 42.743C74.9912 42.902 75.054 43.1198 75.054 43.3961C75.054 43.6096 74.9974 43.8106 74.8844 43.999C74.7713 44.1874 74.6037 44.3402 74.382 44.4575C74.1603 44.5747 73.8984 44.6333 73.5969 44.6333ZM78.3504 40.6768V42.1401H79.9456V42.6111H78.3504V44.1183H80.134V44.5893H77.7789V40.2058H80.134V40.6768H78.3504ZM88.4257 44.6333C88.0194 44.6333 87.6489 44.5391 87.3141 44.3507C86.9794 44.1581 86.7131 43.8922 86.5166 43.5531C86.3238 43.2098 86.2277 42.8246 86.2277 42.3975C86.2277 41.9705 86.3238 41.5874 86.5166 41.2483C86.7131 40.9049 86.9794 40.6391 87.3141 40.4507C87.6489 40.2581 88.0194 40.1618 88.4257 40.1618C88.8358 40.1618 89.2089 40.2581 89.5436 40.4507C89.8783 40.6391 90.1421 40.9029 90.3349 41.242C90.5277 41.5811 90.6238 41.9663 90.6238 42.3975C90.6238 42.8288 90.5277 43.214 90.3349 43.5531C90.1421 43.8922 89.8783 44.1581 89.5436 44.3507C89.2089 44.5391 88.8358 44.6333 88.4257 44.6333ZM88.4257 44.1372C88.7316 44.1372 89.0054 44.066 89.2484 43.9236C89.4953 43.7813 89.6881 43.5782 89.8262 43.3145C89.9688 43.0507 90.0398 42.745 90.0398 42.3975C90.0398 42.0459 89.9688 41.7402 89.8262 41.4806C89.6881 41.2169 89.4978 41.0138 89.2547 40.8715C89.0117 40.7291 88.7354 40.6579 88.4257 40.6579C88.1161 40.6579 87.8398 40.7291 87.5968 40.8715C87.3537 41.0138 87.1615 41.2169 87.019 41.4806C86.8808 41.7402 86.8117 42.0459 86.8117 42.3975C86.8117 42.745 86.8808 43.0507 87.019 43.3145C87.1615 43.5782 87.3537 43.7813 87.5968 43.9236C87.8436 44.066 88.1199 44.1372 88.4257 44.1372ZM95.7365 40.212V40.6768H93.8336V42.1526H95.3785V42.6174H93.8336V44.5893H93.2621V40.212H95.7365ZM103.258 44.6333C102.969 44.6333 102.709 44.5831 102.479 44.4826C102.253 44.3779 102.074 44.2356 101.945 44.0555C101.815 43.8713 101.748 43.6599 101.744 43.4212H102.353C102.374 43.6264 102.458 43.8001 102.605 43.9425C102.755 44.0806 102.973 44.1497 103.258 44.1497C103.53 44.1497 103.743 44.0827 103.898 43.9488C104.057 43.8106 104.137 43.6347 104.137 43.4212C104.137 43.2537 104.09 43.1177 103.999 43.013C103.906 42.9083 103.791 42.8288 103.653 42.7744C103.515 42.7199 103.329 42.6613 103.094 42.5985C102.806 42.5232 102.573 42.4478 102.397 42.3724C102.225 42.2971 102.077 42.1798 101.951 42.0207C101.83 41.8575 101.769 41.6397 101.769 41.3676C101.769 41.129 101.83 40.9175 101.951 40.7333C102.073 40.5491 102.242 40.4067 102.46 40.3062C102.682 40.2058 102.935 40.1555 103.22 40.1555C103.63 40.1555 103.965 40.2581 104.225 40.4632C104.489 40.6684 104.637 40.9405 104.671 41.2797H104.043C104.021 41.1122 103.933 40.9657 103.779 40.8401C103.624 40.7102 103.418 40.6454 103.163 40.6454C102.925 40.6454 102.73 40.7082 102.579 40.8338C102.429 40.9552 102.353 41.1269 102.353 41.3488C102.353 41.5078 102.397 41.6376 102.485 41.7381C102.577 41.8386 102.688 41.916 102.818 41.9705C102.952 42.0207 103.138 42.0793 103.377 42.1463C103.666 42.2259 103.898 42.3054 104.074 42.385C104.25 42.4603 104.401 42.5797 104.526 42.743C104.652 42.902 104.715 43.1198 104.715 43.3961C104.715 43.6096 104.658 43.8106 104.545 43.999C104.432 44.1874 104.264 44.3402 104.043 44.4575C103.82 44.5747 103.559 44.6333 103.258 44.6333ZM110.027 43.6159H108.118L107.766 44.5893H107.163L108.746 40.2372H109.405L110.982 44.5893H110.379L110.027 43.6159ZM109.864 43.1512L109.073 40.9405L108.281 43.1512H109.864ZM114.127 40.212V44.5893H113.555V40.212H114.127ZM120.426 44.5893H119.855L117.556 41.1038V44.5893H116.985V40.2058H117.556L119.855 43.685V40.2058H120.426V44.5893ZM124.673 44.6333C124.384 44.6333 124.124 44.5831 123.894 44.4826C123.668 44.3779 123.49 44.2356 123.36 44.0555C123.23 43.8713 123.163 43.6599 123.159 43.4212H123.768C123.789 43.6264 123.873 43.8001 124.019 43.9425C124.17 44.0806 124.388 44.1497 124.673 44.1497C124.944 44.1497 125.158 44.0827 125.313 43.9488C125.472 43.8106 125.552 43.6347 125.552 43.4212C125.552 43.2537 125.506 43.1177 125.414 43.013C125.321 42.9083 125.206 42.8288 125.068 42.7744C124.93 42.7199 124.743 42.6613 124.509 42.5985C124.22 42.5232 123.988 42.4478 123.812 42.3724C123.641 42.2971 123.492 42.1798 123.366 42.0207C123.245 41.8575 123.184 41.6397 123.184 41.3676C123.184 41.129 123.245 40.9175 123.366 40.7333C123.487 40.5491 123.657 40.4067 123.875 40.3062C124.097 40.2058 124.35 40.1555 124.635 40.1555C125.045 40.1555 125.38 40.2581 125.64 40.4632C125.903 40.6684 126.052 40.9405 126.086 41.2797H125.458C125.437 41.1122 125.349 40.9657 125.194 40.8401C125.039 40.7102 124.834 40.6454 124.578 40.6454C124.34 40.6454 124.145 40.7082 123.994 40.8338C123.844 40.9552 123.768 41.1269 123.768 41.3488C123.768 41.5078 123.812 41.6376 123.9 41.7381C123.992 41.8386 124.103 41.916 124.233 41.9705C124.367 42.0207 124.553 42.0793 124.792 42.1463C125.081 42.2259 125.313 42.3054 125.489 42.385C125.665 42.4603 125.816 42.5797 125.941 42.743C126.067 42.902 126.13 43.1198 126.13 43.3961C126.13 43.6096 126.073 43.8106 125.96 43.999C125.847 44.1874 125.679 44.3402 125.458 44.4575C125.236 44.5747 124.974 44.6333 124.673 44.6333Z" fill="white"/>
<path d="M45.0921 34.7609C43.4802 34.7609 42.0358 34.4992 40.7588 33.9759C39.4819 33.4525 38.4561 32.6779 37.6815 31.6522C36.9279 30.6265 36.5302 29.3913 36.4883 27.9469H42.2033C42.287 28.7633 42.5696 29.3913 43.0511 29.8309C43.5326 30.2496 44.1606 30.459 44.9351 30.459C45.7307 30.459 46.3587 30.281 46.8192 29.9251C47.2797 29.5483 47.51 29.0354 47.51 28.3865C47.51 27.8422 47.3216 27.3922 46.9448 27.0363C46.5889 26.6804 46.1389 26.3873 45.5946 26.157C45.0712 25.9267 44.3176 25.6651 43.3337 25.372C41.9102 24.9324 40.7483 24.4928 39.8482 24.0532C38.948 23.6135 38.1734 22.9646 37.5245 22.1063C36.8756 21.248 36.5511 20.128 36.5511 18.7464C36.5511 16.6948 37.2942 15.0934 38.7806 13.942C40.2669 12.7697 42.2033 12.1836 44.5897 12.1836C47.0181 12.1836 48.9754 12.7697 50.4617 13.942C51.948 15.0934 52.7435 16.7053 52.8482 18.7778H47.039C46.9971 18.0661 46.7355 17.5113 46.254 17.1135C45.7725 16.6948 45.1549 16.4855 44.4013 16.4855C43.7524 16.4855 43.229 16.6634 42.8313 17.0193C42.4336 17.3543 42.2347 17.8463 42.2347 18.4952C42.2347 19.2069 42.5696 19.7617 43.2395 20.1594C43.9094 20.5572 44.9561 20.9864 46.3796 21.4469C47.8031 21.9284 48.9545 22.3889 49.8337 22.8285C50.7338 23.2681 51.5084 23.9066 52.1574 24.744C52.8063 25.5813 53.1308 26.6594 53.1308 27.9783C53.1308 29.2343 52.8063 30.3752 52.1574 31.401C51.5293 32.4267 50.6082 33.2432 49.3941 33.8503C48.1799 34.4574 46.7459 34.7609 45.0921 34.7609ZM70.1577 30.6474H61.9304L60.6116 34.5411H54.9908L62.9668 12.4976H69.1842L77.1601 34.5411H71.4765L70.1577 30.6474ZM68.776 26.5024L66.0441 18.4324L63.3436 26.5024H68.776ZM84.9569 12.4976V34.5411H79.5874V12.4976H84.9569ZM108.568 34.5411H103.198L94.2177 20.9445V34.5411H88.8481V12.4976H94.2177L103.198 26.157V12.4976H108.568V34.5411ZM120.436 34.7609C118.824 34.7609 117.38 34.4992 116.103 33.9759C114.826 33.4525 113.8 32.6779 113.026 31.6522C112.272 30.6265 111.874 29.3913 111.832 27.9469H117.547C117.631 28.7633 117.913 29.3913 118.395 29.8309C118.876 30.2496 119.504 30.459 120.279 30.459C121.074 30.459 121.702 30.281 122.163 29.9251C122.624 29.5483 122.854 29.0354 122.854 28.3865C122.854 27.8422 122.666 27.3922 122.289 27.0363C121.933 26.6804 121.483 26.3873 120.939 26.157C120.415 25.9267 119.661 25.6651 118.678 25.372C117.254 24.9324 116.092 24.4928 115.192 24.0532C114.292 23.6135 113.517 22.9646 112.869 22.1063C112.219 21.248 111.895 20.128 111.895 18.7464C111.895 16.6948 112.638 15.0934 114.125 13.942C115.611 12.7697 117.547 12.1836 119.934 12.1836C122.362 12.1836 124.319 12.7697 125.806 13.942C127.292 15.0934 128.087 16.7053 128.192 18.7778H122.383C122.341 18.0661 122.079 17.5113 121.598 17.1135C121.116 16.6948 120.499 16.4855 119.745 16.4855C119.096 16.4855 118.573 16.6634 118.175 17.0193C117.777 17.3543 117.579 17.8463 117.579 18.4952C117.579 19.2069 117.914 19.7617 118.584 20.1594C119.253 20.5572 120.3 20.9864 121.724 21.4469C123.147 21.9284 124.299 22.3889 125.178 22.8285C126.078 23.2681 126.852 23.9066 127.501 24.744C128.15 25.5813 128.475 26.6594 128.475 27.9783C128.475 29.2343 128.15 30.3752 127.501 31.401C126.873 32.4267 125.952 33.2432 124.738 33.8503C123.524 34.4574 122.09 34.7609 120.436 34.7609Z" fill="white"/>
<path d="M6.45996 18.5266C9.80938 35.1691 19.2088 60.0387 30.0107 26.3769" stroke="#F08A5D" stroke-width="3.5" stroke-linecap="round"/>
<path d="M2.80006 24.855L2.74878 24.789L11.8158 15.4057L13.4499 17.395L2.80006 24.855Z" fill="#F08A5D" stroke="#F08A5D"/>
<path d="M16.0767 16.8325L14.4117 17.8732L11.4946 14.4257L12.7553 12.7447L16.0767 16.8325Z" fill="#F08A5D" stroke="#F08A5D"/>
<path d="M15.2524 34.2272C14.9384 33.5992 9.91428 20.0967 15.2524 23.8649" stroke="#F08A5D" stroke-width="3.5" stroke-linecap="round"/>
<path d="M15.252 23.8648C16.0893 24.7022 18.4549 27.8214 21.2181 33.5991C23.9814 39.3769 23.8349 26.7956 23.4162 19.7827" stroke="#F08A5D" stroke-width="3.5" stroke-linecap="round"/>
<path d="M21.8059 14.4861C21.8743 14.5379 21.9441 14.5898 22.0154 14.6417L21.8059 14.4861ZM21.8059 14.4861C21.7838 14.4692 21.7619 14.4524 21.7401 14.4355L21.7764 14.3296C21.815 14.2169 21.8643 14.1081 21.9236 14.0048L21.6047 13.8217L21.6133 13.8119L21.9288 13.9959L21.8059 14.4861ZM22.2288 14.7922C22.1569 14.743 22.0858 14.6929 22.0155 14.6418L23.2565 15.4422C22.9128 15.2441 22.5623 15.0233 22.2313 14.794L22.2314 14.794L22.2288 14.7922Z" fill="#F08A5D" stroke="#F08A5D"/>
</svg>
